<svg width="16" height="18" viewBox="0 0 16 18" fill="none" xmlns="http://www.w3.org/2000/svg">
<g id="Bell">
<g id="Bell_2">
<mask id="path-1-inside-1_147_11321" fill="white">
<path d="M16 14.5714V15.4286H0V14.5714L1.77778 12.8571V7.71429C1.77778 5.05714 3.58222 2.71714 6.22222 1.96286V1.71429C6.22222 1.25963 6.40952 0.823593 6.74292 0.502103C7.07632 0.180612 7.5285 0 8 0C8.4715 0 8.92368 0.180612 9.25708 0.502103C9.59048 0.823593 9.77778 1.25963 9.77778 1.71429V1.96286C12.4178 2.71714 14.2222 5.05714 14.2222 7.71429V12.8571L16 14.5714ZM9.77778 16.2857C9.77778 16.7404 9.59048 17.1764 9.25708 17.4979C8.92368 17.8194 8.4715 18 8 18C7.5285 18 7.07632 17.8194 6.74292 17.4979C6.40952 17.1764 6.22222 16.7404 6.22222 16.2857"/>
</mask>
<path d="M16 14.5714H17V14.1465L16.6941 13.8516L16 14.5714ZM16 15.4286V16.4286H17V15.4286H16ZM0 15.4286H-1V16.4286H0V15.4286ZM0 14.5714L-0.694136 13.8516L-1 14.1465V14.5714H0ZM1.77778 12.8571L2.47191 13.577L2.77778 13.282V12.8571H1.77778ZM6.22222 1.96286L6.49694 2.92438L7.22222 2.71716V1.96286H6.22222ZM8 0V-1V0ZM9.77778 1.96286H8.77778V2.71716L9.50306 2.92438L9.77778 1.96286ZM14.2222 12.8571H13.2222V13.282L13.5281 13.577L14.2222 12.8571ZM15 14.5714V15.4286H17V14.5714H15ZM16 14.4286H0V16.4286H16V14.4286ZM1 15.4286V14.5714H-1V15.4286H1ZM0.694136 15.2913L2.47191 13.577L1.08364 12.1373L-0.694136 13.8516L0.694136 15.2913ZM2.77778 12.8571V7.71429H0.777778V12.8571H2.77778ZM2.77778 7.71429C2.77778 5.52246 4.26786 3.56126 6.49694 2.92438L5.9475 1.00133C2.89658 1.87302 0.777778 4.59183 0.777778 7.71429H2.77778ZM7.22222 1.96286V1.71429H5.22222V1.96286H7.22222ZM7.22222 1.71429C7.22222 1.53682 7.29499 1.35894 7.43706 1.22195L6.04879 -0.217742C5.52406 0.288248 5.22222 0.982435 5.22222 1.71429H7.22222ZM7.43706 1.22195C7.58036 1.08376 7.78222 1 8 1V-1C7.27478 -1 6.57228 -0.722539 6.04879 -0.217742L7.43706 1.22195ZM8 1C8.21778 1 8.41964 1.08376 8.56294 1.22195L9.95121 -0.217742C9.42772 -0.722539 8.72521 -1 8 -1V1ZM8.56294 1.22195C8.70501 1.35894 8.77778 1.53682 8.77778 1.71429H10.7778C10.7778 0.982435 10.4759 0.288248 9.95121 -0.217742L8.56294 1.22195ZM8.77778 1.71429V1.96286H10.7778V1.71429H8.77778ZM9.50306 2.92438C11.7321 3.56126 13.2222 5.52246 13.2222 7.71429H15.2222C15.2222 4.59183 13.1034 1.87302 10.0525 1.00133L9.50306 2.92438ZM13.2222 7.71429V12.8571H15.2222V7.71429H13.2222ZM13.5281 13.577L15.3059 15.2913L16.6941 13.8516L14.9164 12.1373L13.5281 13.577ZM8.77778 16.2857C8.77778 16.4632 8.70501 16.6411 8.56294 16.7781L9.95121 18.2177C10.4759 17.7118 10.7778 17.0176 10.7778 16.2857H8.77778ZM8.56294 16.7781C8.41964 16.9162 8.21778 17 8 17V19C8.72522 19 9.42772 18.7225 9.95121 18.2177L8.56294 16.7781ZM8 17C7.78222 17 7.58036 16.9162 7.43706 16.7781L6.04879 18.2177C6.57228 18.7225 7.27478 19 8 19V17ZM7.43706 16.7781C7.29499 16.6411 7.22222 16.4632 7.22222 16.2857H5.22222C5.22222 17.0176 5.52406 17.7118 6.04879 18.2177L7.43706 16.7781Z" fill="#ECECEC" mask="url(#path-1-inside-1_147_11321)"/>
</g>
</g>
</svg>
