<svg width="15" height="18" viewBox="0 0 15 18" fill="none" xmlns="http://www.w3.org/2000/svg">
<g id="Delete">
<g id="Delete_2">
<mask id="path-1-inside-1_147_11320" fill="white">
<path d="M15 1H11.25L10.1786 0H4.82143L3.75 1H0V3H15M1.07143 16C1.07143 16.5304 1.29719 17.0391 1.69906 17.4142C2.10092 17.7893 2.64596 18 3.21429 18H11.7857C12.354 18 12.8991 17.7893 13.3009 17.4142C13.7028 17.0391 13.9286 16.5304 13.9286 16V4H1.07143V16Z"/>
</mask>
<path d="M11.25 1L10.5677 1.73106L10.8558 2H11.25V1ZM10.1786 0L10.8609 -0.731055L10.5727 -1H10.1786V0ZM4.82143 0V-1H4.42727L4.13911 -0.731055L4.82143 0ZM3.75 1V2H4.14416L4.43232 1.73106L3.75 1ZM0 1V0H-1V1H0ZM0 3H-1V4H0V3ZM1.07143 16H0.0714285H1.07143ZM13.9286 4H14.9286V3H13.9286V4ZM1.07143 4V3H0.0714285V4H1.07143ZM15 0H11.25V2H15V0ZM11.9323 0.268945L10.8609 -0.731055L9.49625 0.731055L10.5677 1.73106L11.9323 0.268945ZM10.1786 -1H4.82143V1H10.1786V-1ZM4.13911 -0.731055L3.06768 0.268945L4.43232 1.73106L5.50375 0.731055L4.13911 -0.731055ZM3.75 0H0V2H3.75V0ZM-1 1V3H1V1H-1ZM0 4H15V2H0V4ZM0.0714285 16C0.0714285 16.8188 0.420553 17.5888 1.01674 18.1453L2.38138 16.6832C2.17383 16.4895 2.07143 16.2421 2.07143 16H0.0714285ZM1.01674 18.1453C1.61059 18.6995 2.40216 19 3.21429 19V17C2.88977 17 2.59125 16.879 2.38138 16.6832L1.01674 18.1453ZM3.21429 19H11.7857V17H3.21429V19ZM11.7857 19C12.5978 19 13.3894 18.6995 13.9833 18.1453L12.6186 16.6832C12.4088 16.879 12.1102 17 11.7857 17V19ZM13.9833 18.1453C14.5794 17.5888 14.9286 16.8188 14.9286 16H12.9286C12.9286 16.2421 12.8262 16.4895 12.6186 16.6832L13.9833 18.1453ZM14.9286 16V4H12.9286V16H14.9286ZM13.9286 3H1.07143V5H13.9286V3ZM0.0714285 4V16H2.07143V4H0.0714285Z" fill="#ECECEC" mask="url(#path-1-inside-1_147_11320)"/>
</g>
</g>
</svg>
