<svg width="22" height="22" viewBox="0 0 22 22" fill="none" xmlns="http://www.w3.org/2000/svg">
  <g opacity="0.9">
    <path d="M0 7.37917C0 4.769 0 3.46392 0.516022 2.47053C0.950868 1.63342 1.63342 0.950868 2.47053 0.516022C3.46392 0 4.769 0 7.37917 0H14.6208C17.231 0 18.5361 0 19.5295 0.516022C20.3666 0.950868 21.0491 1.63342 21.484 2.47053C22 3.46392 22 4.769 22 7.37917V14.6208C22 17.231 22 18.5361 21.484 19.5295C21.0491 20.3666 20.3666 21.0491 19.5295 21.484C18.5361 22 17.231 22 14.6208 22H7.37917C4.769 22 3.46392 22 2.47053 21.484C1.63342 21.0491 0.950868 20.3666 0.516022 19.5295C0 18.5361 0 17.231 0 14.6208V7.37917Z" fill="url(#paint0_linear_1_11963)"/>
    <path d="M15.2779 14.0555L15.7667 11H12.8334V8.8611C12.8334 8.00555 13.139 7.33333 14.4834 7.33333H15.889V4.52222C15.0945 4.39999 14.239 4.27777 13.4445 4.27777C10.939 4.27777 9.16675 5.80555 9.16675 8.55555V11H6.41675V14.0555H9.16675V22C10.389 22 11.6112 22 12.8334 22V14.0555H15.2779Z" fill="white"/>
  </g>
  <defs>
    <linearGradient id="paint0_linear_1_11963" x1="11" y1="21.3572" x2="11" y2="0" gradientUnits="userSpaceOnUse">
      <stop stop-color="#0062E0"/>
      <stop offset="1" stop-color="#19AFFF"/>
    </linearGradient>
  </defs>
</svg>