<svg width="22" height="22" viewBox="0 0 22 22" fill="none" xmlns="http://www.w3.org/2000/svg">
  <g opacity="0.9" clip-path="url(#clip0_1_11964)">
    <path d="M0.0124512 7.37917C0.0124512 4.769 0.0124512 3.46392 0.528473 2.47053C0.963319 1.63342 1.64587 0.950868 2.48299 0.516022C3.47637 0 4.78145 0 7.39162 0H14.6333C17.2435 0 18.5485 0 19.5419 0.516022C20.379 0.950868 21.0616 1.63342 21.4964 2.47053C22.0125 3.46392 22.0125 4.769 22.0125 7.37917V14.6208C22.0125 17.231 22.0125 18.5361 21.4964 19.5295C21.0616 20.3666 20.379 21.0491 19.5419 21.484C18.5485 22 17.2435 22 14.6333 22H7.39162C4.78145 22 3.47637 22 2.48299 21.484C1.64587 21.0491 0.963319 20.3666 0.528473 19.5295C0.0124512 18.5361 0.0124512 17.231 0.0124512 14.6208V7.37917Z" fill="url(#paint0_radial_1_11964)"/>
    <path d="M0.0124512 7.37917C0.0124512 4.769 0.0124512 3.46392 0.528473 2.47053C0.963319 1.63342 1.64587 0.950868 2.48299 0.516022C3.47637 0 4.78145 0 7.39162 0H14.6333C17.2435 0 18.5485 0 19.5419 0.516022C20.379 0.950868 21.0616 1.63342 21.4964 2.47053C22.0125 3.46392 22.0125 4.769 22.0125 7.37917V14.6208C22.0125 17.231 22.0125 18.5361 21.4964 19.5295C21.0616 20.3666 20.379 21.0491 19.5419 21.484C18.5485 22 17.2435 22 14.6333 22H7.39162C4.78145 22 3.47637 22 2.48299 21.484C1.64587 21.0491 0.963319 20.3666 0.528473 19.5295C0.0124512 18.5361 0.0124512 17.231 0.0124512 14.6208V7.37917Z" fill="url(#paint1_radial_1_11964)"/>
    <path d="M11.0004 3C8.82782 3 8.55517 3.0095 7.70186 3.04833C6.85022 3.08733 6.2689 3.22217 5.76025 3.42C5.2341 3.62433 4.78778 3.89767 4.34313 4.3425C3.89814 4.78717 3.62481 5.2335 3.41982 5.7595C3.22149 6.26833 3.0865 6.84983 3.04817 7.70117C3.01 8.5545 3 8.82733 3 11C3 13.1727 3.00967 13.4445 3.04833 14.2978C3.0875 15.1495 3.22233 15.7308 3.41999 16.2395C3.62448 16.7657 3.89781 17.212 4.34263 17.6567C4.78711 18.1017 5.23343 18.3757 5.75925 18.58C6.26823 18.7778 6.84972 18.9127 7.70119 18.9517C8.5545 18.9905 8.82699 19 10.9994 19C13.1722 19 13.444 18.9905 14.2973 18.9517C15.149 18.9127 15.7309 18.7778 16.2399 18.58C16.7659 18.3757 17.2116 18.1017 17.6561 17.6567C18.101 17.212 18.3744 16.7657 18.5794 16.2397C18.776 15.7308 18.911 15.1493 18.951 14.298C18.9893 13.4447 18.9993 13.1727 18.9993 11C18.9993 8.82733 18.9893 8.55467 18.951 7.70133C18.911 6.84967 18.776 6.26833 18.5794 5.75967C18.3744 5.2335 18.101 4.78717 17.6561 4.3425C17.2111 3.8975 16.7661 3.62417 16.2394 3.42C15.7294 3.22217 15.1478 3.08733 14.2962 3.04833C13.4429 3.0095 13.1712 3 10.9979 3H11.0004ZM10.2828 4.44167C10.4958 4.44133 10.7334 4.44167 11.0004 4.44167C13.1364 4.44167 13.3895 4.44933 14.233 4.48767C15.013 4.52333 15.4363 4.65367 15.7183 4.76317C16.0916 4.90817 16.3578 5.0815 16.6376 5.3615C16.9176 5.6415 17.0909 5.90817 17.2362 6.2815C17.3457 6.56317 17.4762 6.9865 17.5117 7.7665C17.5501 8.60983 17.5584 8.86317 17.5584 10.9982C17.5584 13.1332 17.5501 13.3865 17.5117 14.2298C17.4761 15.0098 17.3457 15.4332 17.2362 15.7148C17.0912 16.0882 16.9176 16.354 16.6376 16.6338C16.3576 16.9138 16.0918 17.0872 15.7183 17.2322C15.4366 17.3422 15.013 17.4722 14.233 17.5078C13.3897 17.5462 13.1364 17.5545 11.0004 17.5545C8.86432 17.5545 8.61116 17.5462 7.76786 17.5078C6.98788 17.4718 6.56456 17.3415 6.2824 17.232C5.90908 17.087 5.64242 16.9137 5.36243 16.6337C5.08244 16.3537 4.90911 16.0877 4.76378 15.7142C4.65428 15.4325 4.52379 15.0092 4.48829 14.2292C4.44996 13.3858 4.44229 13.1325 4.44229 10.9962C4.44229 8.85983 4.44996 8.60783 4.48829 7.7645C4.52395 6.9845 4.65428 6.56117 4.76378 6.27917C4.90878 5.90583 5.08244 5.63917 5.36243 5.35917C5.64242 5.07917 5.90908 4.90583 6.2824 4.7605C6.56439 4.6505 6.98788 4.5205 7.76786 4.48467C8.50583 4.45133 8.79182 4.44133 10.2828 4.43967V4.44167ZM15.2706 5.77C14.7406 5.77 14.3107 6.1995 14.3107 6.72967C14.3107 7.25967 14.7406 7.68967 15.2706 7.68967C15.8006 7.68967 16.2306 7.25967 16.2306 6.72967C16.2306 6.19967 15.8006 5.76967 15.2706 5.76967V5.77ZM11.0004 6.89167C8.73166 6.89167 6.89222 8.73117 6.89222 11C6.89222 13.2688 8.73166 15.1075 11.0004 15.1075C13.2692 15.1075 15.108 13.2688 15.108 11C15.108 8.73117 13.269 6.89167 11.0003 6.89167H11.0004ZM11.0004 8.33333C12.473 8.33333 13.667 9.52717 13.667 11C13.667 12.4727 12.473 13.6667 11.0004 13.6667C9.52764 13.6667 8.33384 12.4727 8.33384 11C8.33384 9.52717 9.52764 8.33333 11.0004 8.33333Z" fill="white"/>
  </g>
  <defs>
    <radialGradient id="paint0_radial_1_11964" cx="0" cy="0" r="1" gradientUnits="userSpaceOnUse" gradientTransform="translate(5.85623 23.6945) rotate(-90) scale(21.8036 20.2791)">
      <stop stop-color="#FFDD55"/>
      <stop offset="0.1" stop-color="#FFDD55"/>
      <stop offset="0.5" stop-color="#FF543E"/>
      <stop offset="1" stop-color="#C837AB"/>
    </radialGradient>
    <radialGradient id="paint1_radial_1_11964" cx="0" cy="0" r="1" gradientUnits="userSpaceOnUse" gradientTransform="translate(-3.67267 1.58484) rotate(78.6806) scale(9.74631 40.1747)">
      <stop stop-color="#3771C8"/>
      <stop offset="0.128" stop-color="#3771C8"/>
      <stop offset="1" stop-color="#6600FF" stop-opacity="0"/>
    </radialGradient>
    <clipPath id="clip0_1_11964">
      <rect width="22" height="22" fill="white"/>
    </clipPath>
  </defs>
</svg>