<svg width="18" height="18" viewBox="0 0 18 18" fill="none" xmlns="http://www.w3.org/2000/svg">
  <g clip-path="url(#clip0_116_5766)">
    <path d="M6.02452 11.7547C5.39833 11.1285 5.39833 10.1105 6.02452 9.48435L7.48928 8.01958L6.79352 7.32382L5.32876 8.78858C4.31807 9.79927 4.31807 11.4398 5.32876 12.4505C6.33944 13.4612 7.97998 13.4612 8.99066 12.4505L10.4554 10.9857L9.75967 10.29L8.2949 11.7547C7.66872 12.3809 6.65071 12.3809 6.02452 11.7547ZM7.89209 10.6195L10.8216 7.69001L10.0892 6.95763L7.15971 9.88716L7.89209 10.6195ZM8.99066 5.12668L7.5259 6.59144L8.22166 7.2872L9.68643 5.82244C10.3126 5.19625 11.3306 5.19625 11.9568 5.82244C12.583 6.44862 12.583 7.46663 11.9568 8.09282L10.492 9.55758L11.1878 10.2533L12.6526 8.78858C13.6633 7.7779 13.6633 6.13736 12.6526 5.12668C11.6419 4.11599 10.0014 4.11599 8.99066 5.12668Z" fill="#A39BB4"/>
  </g>
  <defs>
    <clipPath id="clip0_116_5766">
      <rect width="12.4289" height="12.4289" fill="white" transform="translate(0.202148 8.78858) rotate(-45)"/>
    </clipPath>
  </defs>
</svg>