<svg width="22" height="22" viewBox="0 0 22 22" fill="none" xmlns="http://www.w3.org/2000/svg">
  <g opacity="0.9">
    <path d="M0 7.37917C0 4.769 0 3.46392 0.516022 2.47053C0.950868 1.63342 1.63342 0.950868 2.47053 0.516022C3.46392 0 4.769 0 7.37917 0H14.6208C17.231 0 18.5361 0 19.5295 0.516022C20.3666 0.950868 21.0491 1.63342 21.484 2.47053C22 3.46392 22 4.769 22 7.37917V14.6208C22 17.231 22 18.5361 21.484 19.5295C21.0491 20.3666 20.3666 21.0491 19.5295 21.484C18.5361 22 17.231 22 14.6208 22H7.37917C4.769 22 3.46392 22 2.47053 21.484C1.63342 21.0491 0.950868 20.3666 0.516022 19.5295C0 18.5361 0 17.231 0 14.6208V7.37917Z" fill="#1265BF"/>
    <path d="M4.93804 6.83219C5.99207 6.83219 6.84653 5.97773 6.84653 4.92369C6.84653 3.86966 5.99207 3.0152 4.93804 3.0152C3.884 3.0152 3.02954 3.86966 3.02954 4.92369C3.02954 5.97773 3.884 6.83219 4.93804 6.83219Z" fill="white"/>
    <path d="M8.59439 8.24262H11.7574V9.69161C11.7574 9.69161 12.6157 7.97496 14.9511 7.97496C17.0343 7.97496 18.7601 9.00122 18.7601 12.1293V18.7257H15.4823V12.9286C15.4823 11.0833 14.4971 10.8804 13.7464 10.8804C12.1885 10.8804 11.9218 12.2242 11.9218 13.1693V18.7257H8.59439V8.24262Z" fill="white"/>
    <path d="M3.27435 8.24263H6.60172V18.7257H3.27435V8.24263Z" fill="white"/>
  </g>
</svg>