<svg width="21" height="21" viewBox="0 0 21 21" fill="none" xmlns="http://www.w3.org/2000/svg">
  <path d="M3.95833 18.625C3.60278 18.625 3.29167 18.4917 3.025 18.225C2.75833 17.9583 2.625 17.6472 2.625 17.2917V3.95833C2.625 3.60278 2.75833 3.29167 3.025 3.025C3.29167 2.75833 3.60278 2.625 3.95833 2.625H10.1583V3.95833H3.95833V17.2917H17.2917V11.0917H18.625V17.2917C18.625 17.6472 18.4917 17.9583 18.225 18.225C17.9583 18.4917 17.6472 18.625 17.2917 18.625H3.95833ZM8.44722 13.7583L7.51389 12.8028L16.3583 3.95833H11.4917V2.625H18.625V9.75833H17.2917V4.91389L8.44722 13.7583Z" fill="#ECECEC"/>
</svg>