<svg width="22" height="22" viewBox="0 0 22 22" fill="none" xmlns="http://www.w3.org/2000/svg">
  <g opacity="0.9">
    <path d="M0 7.37917C0 4.769 0 3.46392 0.516022 2.47053C0.950868 1.63342 1.63342 0.950868 2.47053 0.516022C3.46392 0 4.769 0 7.37917 0H14.6208C17.231 0 18.5361 0 19.5295 0.516022C20.3666 0.950868 21.0491 1.63342 21.484 2.47053C22 3.46392 22 4.769 22 7.37917V14.6208C22 17.231 22 18.5361 21.484 19.5295C21.0491 20.3666 20.3666 21.0491 19.5295 21.484C18.5361 22 17.231 22 14.6208 22H7.37917C4.769 22 3.46392 22 2.47053 21.484C1.63342 21.0491 0.950868 20.3666 0.516022 19.5295C0 18.5361 0 17.231 0 14.6208V7.37917Z" fill="#1EA1F2"/>
    <path fill-rule="evenodd" clip-rule="evenodd" d="M17.1063 8.31977C17.1117 8.45718 17.1134 8.59453 17.1134 8.73194C17.1134 12.898 14.1829 17.7074 8.82383 17.7074C7.17763 17.7074 5.6469 17.1827 4.35718 16.2895C4.58516 16.3145 4.8167 16.3333 5.05178 16.3333C6.41671 16.3333 7.67386 15.8273 8.67105 14.9778C7.39614 14.9591 6.3196 14.041 5.94831 12.7918C6.12655 12.8292 6.31011 12.848 6.49782 12.848C6.76252 12.848 7.01951 12.8106 7.26585 12.7357C5.93172 12.4483 4.92684 11.1742 4.92684 9.64397C4.92684 9.62523 4.92684 9.61895 4.92684 9.60646C5.32003 9.83756 5.77006 9.98114 6.24794 9.99988C5.4651 9.4315 4.95051 8.46341 4.95051 7.37038C4.95051 6.79575 5.09381 6.25234 5.34607 5.78389C6.78265 7.69514 8.93042 8.95058 11.3518 9.08175C11.302 8.85065 11.2765 8.60712 11.2765 8.36353C11.2765 6.62092 12.5811 5.20932 14.1906 5.20932C15.0285 5.20932 15.7852 5.59037 16.3164 6.20247C16.9814 6.06506 17.6044 5.80275 18.1681 5.44049C17.9496 6.17751 17.4883 6.79572 16.8855 7.18297C17.4753 7.10802 18.0378 6.93951 18.5595 6.68967C18.1681 7.32051 17.6754 7.87631 17.1063 8.31977Z" fill="white"/>
  </g>
</svg>